<svg width="40" height="40" viewBox="0 0 40 40" fill="none" xmlns="http://www.w3.org/2000/svg">
<circle cx="20" cy="20" r="20" fill="white"/>
<path fill-rule="evenodd" clip-rule="evenodd" d="M12.6518 26.7941C11.0925 25.2348 11.0925 22.7066 12.6518 21.1473L15.4853 18.3138C15.8758 17.9233 15.8758 17.2902 15.4853 16.8996C15.0948 16.5091 14.4616 16.5091 14.0711 16.8996L11.2376 19.7331C8.89723 22.0735 8.89723 25.8679 11.2376 28.2083C13.5779 30.5486 17.3724 30.5486 19.7127 28.2083L20.0713 27.8497L22.5462 25.3748C22.9367 24.9843 22.9367 24.3511 22.5462 23.9606C22.1557 23.57 21.5225 23.57 21.132 23.9606L18.6571 26.4354L18.2985 26.7941C16.7392 28.3534 14.2111 28.3534 12.6518 26.7941ZM16.8995 14.0712C16.509 14.4617 16.509 15.0949 16.8995 15.4854C17.29 15.8759 17.9232 15.8759 18.3137 15.4854L21.1472 12.6519C22.7065 11.0926 25.2346 11.0926 26.7939 12.6519C28.3532 14.2112 28.3532 16.7394 26.7939 18.2987L26.4353 18.6573L23.9604 21.1321C23.5699 21.5227 23.5699 22.1558 23.9604 22.5464C24.351 22.9369 24.9841 22.9369 25.3746 22.5464L27.8495 20.0715L28.2081 19.7129C30.5485 17.3725 30.5485 13.5781 28.2081 11.2377C25.8678 8.89737 22.0733 8.89737 19.733 11.2377L16.8995 14.0712ZM14.7735 23.2587C14.3829 23.6492 14.3829 24.2823 14.7735 24.6729C15.164 25.0634 15.7971 25.0634 16.1877 24.6729L24.6729 16.1876C25.0635 15.7971 25.0635 15.1639 24.6729 14.7734C24.2824 14.3828 23.6493 14.3828 23.2587 14.7734L14.7735 23.2587Z" fill="#FF4225"/>
</svg>
