<svg width="40" height="40" viewBox="0 0 40 40" fill="none" xmlns="http://www.w3.org/2000/svg">
<path d="M20 40C31.0457 40 40 31.0457 40 20C40 8.95431 31.0457 0 20 0C8.95431 0 0 8.95431 0 20C0 31.0457 8.95431 40 20 40Z" fill="white"/>
<path fill-rule="evenodd" clip-rule="evenodd" d="M22.7306 13.5244C23.3811 13.5244 24.0315 13.5244 24.682 13.5244H25V10.1336C24.6531 10.1336 24.2917 10.0467 23.9304 10.0322C23.2654 10.0322 22.6005 9.95975 21.9356 10.0322C20.9035 10.0171 19.8926 10.3262 19.0447 10.9161C18.5874 11.2486 18.2019 11.6703 17.9113 12.1558C17.6206 12.6414 17.4309 13.1809 17.3535 13.7418C17.2719 14.2204 17.2332 14.7053 17.2378 15.1908C17.2378 15.9588 17.2378 16.7123 17.2378 17.4803V17.7557H14V21.5522H17.2089V31H21.1406V21.5087H24.3495C24.5085 20.248 24.6675 19.0018 24.841 17.6977H21.1117C21.1117 17.6977 21.1117 15.8284 21.1117 15.0169C21.1695 13.9012 21.8344 13.6114 22.7306 13.5244Z" fill="#FF4225"/>
</svg>
