<svg width="40" height="40" viewBox="0 0 40 40" fill="none" xmlns="http://www.w3.org/2000/svg">
<path d="M20 40C31.0457 40 40 31.0457 40 20C40 8.9543 31.0457 0 20 0C8.9543 0 0 8.9543 0 20C0 31.0457 8.9543 40 20 40Z" fill="white"/>
<path d="M11.2928 15.9408H15.041V28.057H11.2928V15.9408ZM13.1744 9.92779C13.6062 9.9278 14.0284 10.0569 14.3872 10.2987C14.7461 10.5406 15.0255 10.8842 15.1901 11.2861C15.3546 11.6881 15.3969 12.1301 15.3116 12.5563C15.2263 12.9824 15.0171 13.3734 14.7107 13.6798C14.4043 13.9861 14.0144 14.1939 13.5905 14.2769C13.1666 14.3599 12.7278 14.3143 12.3297 14.1459C11.9316 13.9774 11.5921 13.6938 11.3543 13.3309C11.1166 12.968 10.9912 12.5422 10.9942 12.1075C10.9942 11.82 11.0507 11.5353 11.1604 11.2699C11.2702 11.0044 11.431 10.7635 11.6337 10.5609C11.8363 10.3583 12.0768 10.198 12.3412 10.0894C12.6056 9.98072 12.8888 9.9258 13.1744 9.92779Z" fill="#FF4225"/>
<path d="M17.3879 15.9409H20.9867V17.5945C21.3432 16.9746 21.8615 16.4647 22.4854 16.1202C23.1093 15.7758 23.8149 15.6098 24.5259 15.6403C28.3189 15.6403 29.0058 18.1507 29.0058 21.4128V28.0571H25.2576V22.1644C25.2576 20.7513 25.2576 18.9474 23.3163 18.9474C21.375 18.9474 21.0763 20.4507 21.0763 22.0592V28.0722H17.3281L17.3879 15.9409Z" fill="#FF4225"/>
</svg>
