<svg width="224" height="49" viewBox="0 0 224 49" fill="none" xmlns="http://www.w3.org/2000/svg">
<path d="M34.3725 20.9829C32.568 18.3601 30.5736 16.0666 24.0523 12.7849C17.5309 9.50314 17.9868 2.78759 18.9745 0C18.9745 0 9.63567 1.31143 8.32507 10.6562C8.16045 12.6202 7.69193 15.7245 12.7571 22.4591C13.4427 23.404 13.7355 24.5781 13.5738 25.7345C13.4521 26.7861 12.9467 27.7556 12.1544 28.4572C11.3622 29.1587 10.339 29.5428 9.28111 29.5358C9.06926 29.5372 8.8576 29.5223 8.64797 29.4914C3.07634 28.8579 3.58286 19.4941 3.58286 19.4941C1.77044 22.0235 0.587465 24.9491 0.132241 28.0279C-0.449673 32.8855 0.903732 37.777 3.89946 41.6435C6.89518 45.5099 11.2922 48.0402 16.1386 48.6866C20.985 49.333 25.8908 48.0434 29.794 45.0971C33.6972 42.1507 36.2838 37.7847 36.9937 32.9442C37.4812 28.6868 36.6391 24.2774 34.3725 20.9829ZM32.6883 32.4184C32.1976 35.7935 30.5026 38.8769 27.9167 41.0989C25.3307 43.3208 22.0284 44.5312 18.6199 44.5064C17.985 44.5047 17.3507 44.4645 16.7205 44.386C14.8545 44.1469 13.0544 43.54 11.4243 42.6005C9.79421 41.661 8.36635 40.4074 7.2234 38.9122C5.78536 37.0414 4.84045 34.8388 4.47559 32.5071C5.57964 33.1907 6.82028 33.6233 8.1098 33.7742C8.49608 33.8247 8.88521 33.8501 9.27478 33.8502C11.3765 33.8611 13.4096 33.1025 14.991 31.7173C16.5724 30.3321 17.5929 28.416 17.8602 26.33C18.1787 24.0179 17.5736 21.6732 16.176 19.8045C14.3906 17.4414 13.2572 15.4204 12.795 13.7986C12.5576 12.9758 12.4993 12.1116 12.6241 11.2644V11.1504C12.8151 9.64423 13.4524 8.22985 14.4539 7.08934C14.9164 9.16762 15.85 11.1118 17.1828 12.7716C18.5155 14.4314 20.2116 15.7625 22.1402 16.6622C28.2563 19.7412 29.5479 21.6165 30.8016 23.4411C32.3907 25.7472 33.0745 29.0163 32.6883 32.4184Z" fill="white"/>
<path d="M63.672 30.6211V22.4128H67.6975V43.081H63.672V34.5185H56.0324V43.081H51.9775V22.4128H56.0324V30.6211H63.672Z" fill="white"/>
<path d="M77.6595 38.2388L80.921 28.318H84.9758L79.6281 43.081C78.8642 45.2069 77.8456 46.7422 76.5723 47.6871C75.3186 48.6516 73.7515 49.0846 71.871 48.9862V45.4431C72.87 45.4628 73.6732 45.2463 74.2804 44.7935C74.8877 44.3408 75.3676 43.6125 75.7202 42.6086L69.6967 28.318H73.8397L77.6595 38.2388Z" fill="white"/>
<path d="M95.3301 27.9047C97.3086 27.9047 98.9932 28.6625 100.384 30.1782C101.794 31.6938 102.5 33.5343 102.5 35.6995C102.5 37.9041 101.794 39.7544 100.384 41.2504C99.0128 42.7464 97.3282 43.4944 95.3301 43.4944C93.2733 43.4944 91.6866 42.7759 90.5701 41.339V48.9862H86.7797V28.318H90.5701V30.0601C91.6866 28.6231 93.2733 27.9047 95.3301 27.9047ZM91.716 38.7112C92.48 39.4788 93.4496 39.8627 94.6249 39.8627C95.8003 39.8627 96.7699 39.4788 97.5339 38.7112C98.3174 37.9238 98.7092 36.9199 98.7092 35.6995C98.7092 34.4791 98.3174 33.4851 97.5339 32.7174C96.7699 31.93 95.8003 31.5364 94.6249 31.5364C93.4496 31.5364 92.48 31.93 91.716 32.7174C90.9521 33.4851 90.5701 34.4791 90.5701 35.6995C90.5701 36.9199 90.9521 37.9238 91.716 38.7112Z" fill="white"/>
<path d="M119.453 37.2644H108.376C108.865 39.1147 110.246 40.0398 112.519 40.0398C113.968 40.0398 115.065 39.5477 115.809 38.5635L118.865 40.3351C117.416 42.4413 115.281 43.4944 112.46 43.4944C110.031 43.4944 108.082 42.7562 106.613 41.2799C105.143 39.8036 104.409 37.9435 104.409 35.6995C104.409 33.4949 105.134 31.6446 106.583 30.1486C108.013 28.6527 109.874 27.9047 112.166 27.9047C114.34 27.9047 116.113 28.6527 117.484 30.1486C118.895 31.6446 119.6 33.4949 119.6 35.6995C119.6 36.1129 119.551 36.6345 119.453 37.2644ZM108.317 34.3118H115.809C115.594 33.3473 115.153 32.6091 114.487 32.0974C113.841 31.5856 113.067 31.3297 112.166 31.3297C111.147 31.3297 110.305 31.5954 109.639 32.1269C108.973 32.6387 108.532 33.367 108.317 34.3118Z" fill="white"/>
<path d="M134.704 22.4128V26.3103H126.477V31.2116H134.469V35.109H126.477V43.081H122.422V22.4128H134.704Z" fill="white"/>
<path d="M148.648 30.0601V28.318H152.439V43.081H148.648V41.339C147.512 42.7759 145.916 43.4944 143.859 43.4944C141.9 43.4944 140.215 42.7464 138.805 41.2504C137.414 39.7347 136.719 37.8844 136.719 35.6995C136.719 33.5343 137.414 31.6938 138.805 30.1782C140.215 28.6625 141.9 27.9047 143.859 27.9047C145.916 27.9047 147.512 28.6231 148.648 30.0601ZM141.655 38.7112C142.419 39.4788 143.389 39.8627 144.564 39.8627C145.739 39.8627 146.709 39.4788 147.473 38.7112C148.256 37.9238 148.648 36.9199 148.648 35.6995C148.648 34.4791 148.256 33.4851 147.473 32.7174C146.709 31.93 145.739 31.5364 144.564 31.5364C143.389 31.5364 142.419 31.93 141.655 32.7174C140.891 33.4851 140.509 34.4791 140.509 35.6995C140.509 36.9199 140.891 37.9238 141.655 38.7112Z" fill="white"/>
<path d="M162.869 43.4944C160.655 43.4944 158.804 42.7464 157.315 41.2504C155.846 39.7544 155.112 37.9041 155.112 35.6995C155.112 33.4949 155.846 31.6446 157.315 30.1486C158.804 28.6527 160.655 27.9047 162.869 27.9047C164.299 27.9047 165.601 28.2491 166.777 28.9381C167.952 29.627 168.843 30.5522 169.451 31.7135L166.189 33.6327C165.895 33.0225 165.445 32.5402 164.838 32.1859C164.25 31.8316 163.584 31.6545 162.839 31.6545C161.703 31.6545 160.763 32.0383 160.019 32.806C159.274 33.554 158.902 34.5185 158.902 35.6995C158.902 36.8412 159.274 37.8057 160.019 38.5931C160.763 39.3411 161.703 39.7151 162.839 39.7151C163.603 39.7151 164.279 39.5477 164.867 39.2131C165.474 38.8588 165.925 38.3765 166.219 37.7663L169.509 39.656C168.863 40.837 167.942 41.772 166.747 42.461C165.572 43.1499 164.279 43.4944 162.869 43.4944Z" fill="white"/>
<path d="M179.918 28.318V31.9793H176.597V38.1207C176.597 38.6324 176.725 39.0064 176.979 39.2426C177.234 39.4788 177.606 39.6166 178.096 39.656C178.586 39.6757 179.193 39.6658 179.918 39.6265V43.081C177.352 43.3763 175.52 43.1401 174.423 42.3724C173.346 41.585 172.807 40.1678 172.807 38.1207V31.9793H170.251V28.318H172.807V25.3359L176.597 24.1844V28.318H179.918Z" fill="white"/>
<path d="M194.648 41.2504C193.159 42.7464 191.318 43.4944 189.124 43.4944C186.93 43.4944 185.089 42.7464 183.6 41.2504C182.111 39.7544 181.367 37.9041 181.367 35.6995C181.367 33.5146 182.111 31.6742 183.6 30.1782C185.109 28.6625 186.95 27.9047 189.124 27.9047C191.299 27.9047 193.14 28.6625 194.648 30.1782C196.157 31.6938 196.911 33.5343 196.911 35.6995C196.911 37.8844 196.157 39.7347 194.648 41.2504ZM186.274 38.6226C187.038 39.3903 187.988 39.7741 189.124 39.7741C190.26 39.7741 191.21 39.3903 191.974 38.6226C192.738 37.8549 193.12 36.8806 193.12 35.6995C193.12 34.5185 192.738 33.5441 191.974 32.7765C191.21 32.0088 190.26 31.6249 189.124 31.6249C187.988 31.6249 187.038 32.0088 186.274 32.7765C185.53 33.5638 185.158 34.5382 185.158 35.6995C185.158 36.8609 185.53 37.8352 186.274 38.6226Z" fill="white"/>
<path d="M203.368 28.318V30.8573C203.701 29.9321 204.269 29.2333 205.072 28.7609C205.875 28.2688 206.796 28.0228 207.834 28.0228V32.2745C206.678 32.117 205.64 32.3533 204.719 32.9831C203.818 33.5933 203.368 34.6071 203.368 36.0243V43.081H199.577V28.318H203.368Z" fill="white"/>
<path d="M216.684 38.2388L219.945 28.318H224L218.652 43.081C217.888 45.2069 216.87 46.7422 215.596 47.6871C214.343 48.6516 212.776 49.0846 210.895 48.9862V45.4431C211.894 45.4628 212.697 45.2463 213.305 44.7935C213.912 44.3408 214.392 43.6125 214.744 42.6086L208.721 28.318H212.864L216.684 38.2388Z" fill="white"/>
</svg>
