<svg width="848" height="848" viewBox="0 0 848 848" fill="none" xmlns="http://www.w3.org/2000/svg">
<path fill-rule="evenodd" clip-rule="evenodd" d="M405.137 24.2293L405.012 20.6286L415.625 20.2594L415.336 11.9501L404.724 12.3193L404.602 8.8109L416.368 8.40164L416.076 0L395.082 0.730249L396.204 33.0442L417.429 32.306L417.134 23.812L405.137 24.2293ZM374.868 2.82478L385.045 1.60195L376.568 22.8114L378.031 35.0106L368.863 36.1123L367.4 23.913L354.149 5.31451L364.325 4.09168L370.95 14.7402L374.868 2.82478ZM299.888 52.0625L308.639 49.5815L308.821 31.5741L318.411 46.8109L327.162 44.3299L327.153 10.7255L317.381 13.4961L318.003 31.8035L308.142 16.1156L301.301 18.0551L301.124 36.5892L292.062 20.6746L282.29 23.4453L299.888 52.0625ZM269.847 50.8323L271.187 54.1764L282.328 49.7036L285.489 57.5924L265.779 65.5058L253.753 35.4941L273.249 27.6668L276.375 35.4698L265.449 39.8566L266.755 43.115L276.61 39.1583L279.702 46.8756L269.847 50.8323ZM231.981 46.0982L238.679 59.2724L222.929 50.7096L216.347 54.0634L231.001 82.882L239.229 78.6898L232.53 65.5156L248.28 74.0783L254.863 70.7246L240.209 41.9059L231.981 46.0982ZM183.268 75.27L191.664 69.3884L194.185 92.0943L201.224 102.162L193.661 107.461L186.621 97.393L166.173 87.2451L174.569 81.3635L185.428 87.6279L183.268 75.27ZM164.56 119.745L162.256 116.976L170.413 110.174L165.096 103.784L156.939 110.586L154.694 107.888L163.738 100.347L158.362 93.8865L142.224 107.342L162.902 132.191L179.217 118.588L173.781 112.056L164.56 119.745ZM117.103 131.672L126.341 122.625C128.716 120.298 131.46 119.097 134.572 119.022C137.62 118.925 140.381 120.142 142.856 122.674C145.309 125.184 146.475 127.985 146.355 131.076C146.19 134.167 144.92 136.876 142.545 139.203L139.906 141.788L146.297 148.326L139.699 154.789L117.103 131.672ZM133.643 135.381L136.283 132.796C136.811 132.279 137.078 131.694 137.085 131.04C137.093 130.344 136.817 129.709 136.257 129.136C135.698 128.564 135.081 128.285 134.406 128.299C133.732 128.27 133.131 128.514 132.603 129.031L129.964 131.616L133.643 135.381ZM110.964 138.416L104.292 146.2L109.454 157.633L97.3802 154.265L90.7085 162.049L113.035 166.796L122.354 174.798L128.365 167.785L119.046 159.783L110.964 138.416ZM88.29 185.096L78.9591 178.457L84.3068 170.926L110.644 189.665L105.296 197.196L95.5891 190.289L91.0436 196.691L100.751 203.597L95.403 211.128L69.0658 192.39L74.4135 184.859L83.7444 191.497L88.29 185.096ZM77.7805 241.925L82.3579 233.165L68.7297 233.224C68.6116 231.39 68.0704 229.734 67.1061 228.256C66.1561 226.75 64.8357 225.555 63.145 224.67C60.118 223.085 57.1561 222.838 54.2595 223.928C51.3214 225.031 49.0395 227.138 47.4139 230.249L41.4248 241.71L70.0588 256.702L74.3368 248.516L65.3375 243.804L66.407 241.757L77.7805 241.925ZM53.2294 237.464L54.855 234.353C55.3113 233.48 55.9133 232.926 56.6608 232.692C57.3953 232.416 58.1853 232.5 59.0307 232.942C59.8761 233.385 60.3951 233.987 60.5877 234.748C60.7947 235.482 60.6563 236.279 60.1728 237.138L58.5471 240.249L53.2294 237.464ZM66.5106 264.942L62.7481 274.132L58.4836 273.581L54.9487 282.215L58.3733 284.818L54.6109 294.008L28.6112 272.21L32.7061 262.208L66.5106 264.942ZM40.6972 271.327L48.8664 277.574L50.8964 272.615L40.6972 271.327ZM40.9183 310.392L37.4768 309.331L40.6003 299.177L32.6583 296.729L29.5348 306.883L26.1815 305.85L29.6446 294.592L21.6144 292.117L15.4352 312.204L46.3206 321.724L52.5677 301.416L44.4492 298.914L40.9183 310.392ZM11.1699 330.297L13.3575 320.279L30.5966 335.256L42.5939 337.881L40.6231 346.907L28.6258 344.282L6.71593 350.694L8.90351 340.676L21.1319 337.914L11.1699 330.297ZM32.7924 418.41L33.3184 409.325L16.3739 403.253L33.9057 399.18L34.4317 390.096L2.69644 379.095L2.1091 389.24L19.6006 394.649L1.55379 398.831L1.14265 405.933L18.5861 412.172L0.587344 415.524L0 425.669L32.7924 418.41ZM847.275 442.796L835.836 442.309L836.169 434.464L847.608 434.95L848 425.72L815.711 424.348L815.32 433.577L827.22 434.083L826.887 441.929L814.987 441.423L814.595 450.653L846.884 452.025L847.275 442.796ZM842.059 494.359L843.436 484.197L832.895 477.405L844.863 473.67L846.24 463.508L824.915 471.66L812.746 470.008L811.505 479.162L823.674 480.814L842.059 494.359ZM840.52 503.333L837.665 515.947C836.931 519.191 835.277 521.689 832.702 523.442C830.195 525.178 827.215 525.655 823.763 524.872C820.341 524.095 817.843 522.376 816.268 519.714C814.73 517.029 814.328 514.064 815.062 510.821L815.878 507.217L806.963 505.195L809.002 496.185L840.52 503.333ZM824.613 509.198L823.797 512.802C823.634 513.523 823.727 514.159 824.075 514.712C824.446 515.301 825.022 515.685 825.803 515.862C826.583 516.039 827.253 515.938 827.812 515.56C828.394 515.218 828.767 514.687 828.93 513.966L829.746 510.362L824.613 509.198ZM806.632 540.5L810.065 541.587L806.865 551.717L814.788 554.225L817.988 544.095L821.334 545.154L817.786 556.385L825.797 558.92L832.128 538.881L801.315 529.128L794.915 549.387L803.014 551.951L806.632 540.5ZM815.008 587.423L811.123 596.912L796.731 579.176L785.368 574.515L788.868 565.966L800.231 570.628L822.918 568.102L819.033 577.592L806.512 578.196L815.008 587.423ZM789.554 638.32L776.808 630.846L794.686 629.551L798.418 623.173L770.536 606.824L765.871 614.796L778.617 622.27L760.739 623.565L757.006 629.943L784.888 646.292L789.554 638.32ZM755.559 653.999L752.625 651.911L745.672 661.701L738.75 656.775L751.049 639.454L777.386 658.193L765.22 675.326L758.373 670.454L765.191 660.852L762.332 658.817L756.182 667.478L749.409 662.659L755.559 653.999ZM729.381 669.36L723.386 676.203L733.017 691.418L716.69 683.845L710.695 690.688L728.961 718.891L735.656 711.249L725.187 696.22L741.986 704.024L746.673 698.675L736.752 683.021L753.003 691.45L759.699 683.809L729.381 669.36ZM692.114 752.149L684.24 758.713L679.826 736.299L671.968 726.856L679.061 720.942L686.919 730.384L708.145 738.782L700.271 745.347L688.926 740.015L692.114 752.149ZM655.827 749.903L657.891 752.856L649.193 758.949L653.956 765.762L662.654 759.669L664.665 762.545L655.022 769.301L659.838 776.19L677.045 764.135L658.522 737.64L641.125 749.827L645.994 756.792L655.827 749.903ZM608.505 769.505L617.105 764.547L620.138 767.596L628.219 762.938L627.106 758.781L635.706 753.823L642.909 786.988L633.548 792.385L608.505 769.505ZM632.816 780.279L630.184 770.334L625.543 773.01L632.816 780.279ZM585.268 780.812L576.288 784.935L587.1 793.236C586.07 794.759 585.485 796.4 585.343 798.159C585.173 799.931 585.485 801.685 586.28 803.42C587.704 806.528 589.894 808.537 592.852 809.45C595.85 810.377 598.943 810.109 602.133 808.645L613.882 803.252L600.416 773.859L592.024 777.711L596.256 786.949L594.158 787.912L585.268 780.812ZM601.95 799.378L598.761 800.842C597.866 801.253 597.051 801.322 596.317 801.049C595.567 800.817 594.993 800.268 594.596 799.4C594.198 798.532 594.156 797.738 594.47 797.018C594.755 796.311 595.352 795.766 596.26 795.383L599.449 793.919L601.95 799.378ZM541.099 819.419L544.384 830.393L535.54 833.046L526.267 802.072L535.112 799.419L538.529 810.835L546.047 808.58L542.63 797.163L551.474 794.51L560.747 825.484L551.902 828.137L548.617 817.164L541.099 819.419ZM494.729 842.095L504.774 840.057L507.723 827.865L515.181 837.946L525.226 835.909L510.525 818.436L508.087 806.394L499.037 808.23L501.475 820.272L494.729 842.095ZM485.826 843.475L472.979 844.918C469.676 845.289 466.774 844.546 464.274 842.689C461.811 840.89 460.383 838.231 459.988 834.711C459.597 831.223 460.399 828.297 462.395 825.935C464.425 823.6 467.092 822.246 470.395 821.875L474.066 821.463L473.046 812.374L482.223 811.343L485.826 843.475ZM475.064 830.368L471.394 830.78C470.66 830.863 470.089 831.159 469.682 831.67C469.247 832.214 469.075 832.885 469.164 833.68C469.253 834.476 469.568 835.076 470.109 835.48C470.623 835.918 471.247 836.096 471.981 836.013L475.651 835.601L475.064 830.368ZM439.83 823.572L439.941 827.173L429.327 827.501L429.584 835.811L440.197 835.483L440.306 838.992L428.538 839.356L428.797 847.759L449.794 847.109L448.797 814.791L427.57 815.448L427.832 823.943L439.83 823.572ZM396.202 846.791L385.969 846.198L398.051 826.818L398.761 814.552L407.98 815.087L407.27 827.353L417.035 848L406.803 847.406L402.159 835.755L396.202 846.791ZM340.247 839.35L343.125 824.852L350.21 841.331L357.455 842.772L363.749 811.057L354.693 809.256L351.815 823.754L344.73 807.275L337.485 805.834L331.191 837.549L340.247 839.35ZM314.492 812.339L315.499 808.88L303.975 805.518L306.351 797.358L326.739 803.306L317.701 834.349L297.534 828.466L299.884 820.395L311.186 823.692L312.168 820.322L301.973 817.348L304.297 809.365L314.492 812.339ZM291.17 792.477L282.754 789.025L271.511 803.084L273.357 785.17L264.941 781.718L244.234 808.169L253.631 812.024L264.427 797.232L262.517 815.669L269.095 818.368L280.659 803.891L277.98 822.012L287.378 825.868L291.17 792.477ZM200.978 784.056L192.232 778.709L212.009 767.307L218.408 756.82L226.287 761.637L219.888 772.124L218.784 794.943L210.039 789.596L211.426 777.127L200.978 784.056ZM191.464 749.031L189.335 751.938L180.773 745.655L175.861 752.362L184.424 758.644L182.35 761.476L172.857 754.51L167.891 761.292L184.83 773.721L203.93 747.639L186.805 735.073L181.784 741.929L191.464 749.031ZM157.707 710.595L165.168 717.145L163.262 721.003L170.272 727.157L173.843 724.762L181.304 731.312L152.262 748.832L144.142 741.703L157.707 710.595ZM155.354 737.105L163.91 731.404L159.885 727.87L155.354 737.105ZM139.613 692.416L132.808 685.249L128.464 698.178C126.691 697.697 124.951 697.675 123.242 698.111C121.512 698.524 119.955 699.389 118.572 700.704C116.097 703.06 114.906 705.786 115.002 708.882C115.096 712.021 116.351 714.864 118.768 717.409L127.671 726.786L151.091 704.506L144.732 697.808L137.371 704.81L135.782 703.136L139.613 692.416ZM127.468 714.232L125.051 711.687C124.373 710.972 124.044 710.223 124.064 709.439C124.04 708.654 124.374 707.933 125.066 707.275C125.757 706.617 126.494 706.32 127.276 706.384C128.036 706.425 128.745 706.813 129.401 707.549L131.817 710.094L127.468 714.232ZM88.664 663.1L79.3575 669.773L73.9823 662.261L100.251 643.426L105.626 650.938L95.9442 657.88L100.513 664.264L110.195 657.322L115.57 664.834L89.3016 683.669L83.9264 676.157L93.233 669.484L88.664 663.1ZM52.4205 627.226L57.6316 636.056L70.1084 634.849L63.0305 645.205L68.2416 654.035L79.9279 634.408L90.5001 628.156L85.8055 620.201L75.2332 626.453L52.4205 627.226ZM48.0968 619.173L42.5363 607.497C41.1065 604.495 40.8602 601.508 41.7973 598.536C42.6922 595.618 44.737 593.397 47.9318 591.873C51.0989 590.362 54.124 590.163 57.0074 591.278C59.8762 592.434 62.0255 594.513 63.4553 597.515L65.044 600.851L73.2949 596.914L77.2667 605.254L48.0968 619.173ZM56.9598 604.709L55.3711 601.373C55.0533 600.706 54.5868 600.263 53.9715 600.045C53.3152 599.812 52.6259 599.868 51.9036 600.213C51.1813 600.557 50.7177 601.052 50.5128 601.695C50.2669 602.324 50.3028 602.972 50.6205 603.64L52.2092 606.976L56.9598 604.709ZM51.9046 569.384L48.538 570.663L44.772 560.73L37.0029 563.681L40.7689 573.614L37.4886 574.86L33.3132 563.847L25.4578 566.832L32.9079 586.482L63.1212 575.005L55.5892 555.138L47.6474 558.155L51.9046 569.384ZM16.0102 536.754L13.2184 526.888L35.4769 531.955L47.2924 528.605L49.8076 537.494L37.9921 540.844L21.6945 556.843L18.9027 546.976L28.3836 538.767L16.0102 536.754ZM4.83755 482.378L19.4695 480.333L6.24088 492.442L7.26149 499.762L39.2689 495.29L37.9931 486.141L23.3612 488.185L36.5898 476.076L35.5692 468.756L3.56179 473.228L4.83755 482.378ZM21.779 448.704L25.3756 448.523L24.774 436.529L33.2583 436.102L34.3227 457.323L2.04538 458.945L0.992568 437.955L9.38466 437.533L9.9747 449.297L13.4791 449.121L12.9469 438.51L21.2468 438.093L21.779 448.704ZM456.032 33.4443L446.121 32.9078L445.238 28.6969L435.926 28.1928L434.595 32.284L424.684 31.7475L436.708 0.0176319L447.496 0.601538L456.032 33.4443ZM441.517 11.1486L438.307 20.9204L443.655 21.2098L441.517 11.1486ZM481.57 36.4321L491.345 37.8743L486.798 25.0173C488.49 24.302 489.874 23.2457 490.951 21.8482C492.059 20.4553 492.751 18.8144 493.029 16.9255C493.527 13.5439 492.785 10.6641 490.802 8.28596C488.793 5.87289 486.052 4.41026 482.581 3.89807L469.792 2.01106L465.082 33.9992L474.217 35.3471L475.697 25.2937L477.981 25.6306L481.57 36.4321ZM477.689 11.7672L481.16 12.2794C482.135 12.4232 482.855 12.8097 483.323 13.4389C483.825 14.0422 484.007 14.8161 483.868 15.7605C483.729 16.7049 483.332 17.3934 482.677 17.8259C482.052 18.2629 481.255 18.3943 480.285 18.2201L476.814 17.7079L477.689 11.7672ZM541.738 28.4435L544.982 17.4575L553.837 20.0771L544.681 51.0859L535.826 48.4663L539.201 37.0373L531.674 34.8107L528.3 46.2397L519.445 43.62L528.601 12.6112L537.456 15.2308L534.212 26.2168L541.738 28.4435ZM591.928 34.3075L582.402 30.5241L573.28 39.1269L572.532 26.6044L563.006 22.821L565.789 45.495L561.262 56.9165L569.845 60.3249L574.372 48.9035L591.928 34.3075ZM601.212 38.3579L612.753 44.1842C615.721 45.6824 617.743 47.8935 618.821 50.8174C619.899 53.6724 619.641 56.6811 618.048 59.8433C616.468 62.9781 614.198 64.9878 611.236 65.8725C608.26 66.7158 605.289 66.3883 602.321 64.8901L599.023 63.2254L594.909 71.3923L586.665 67.2306L601.212 38.3579ZM603.055 55.2236L606.352 56.8882C607.012 57.2212 607.652 57.2854 608.272 57.0811C608.933 56.8631 609.444 56.3966 609.804 55.6816C610.164 54.9667 610.228 54.292 609.996 53.6576C609.806 53.0095 609.381 52.519 608.721 52.1861L605.424 50.5214L603.055 55.2236ZM628.167 79.7007L630.043 76.6256L639.104 82.1652L643.434 75.0686L634.373 69.529L636.201 66.5327L646.247 72.6744L650.625 65.499L632.7 54.5403L615.861 82.1379L633.983 93.2171L638.409 85.9629L628.167 79.7007ZM676.397 83.2746L684.662 89.3389L663.997 99.0359L656.739 108.947L649.293 103.484L656.551 93.5725L659.57 70.9273L667.835 76.9917L665.404 89.2992L676.397 83.2746ZM719.296 119.805L709.004 130.41L712.012 112.723L706.714 107.572L684.202 130.771L690.824 137.209L701.115 126.604L698.108 144.291L703.406 149.442L725.917 126.243L719.296 119.805ZM726.471 156.591L723.747 158.948L731.593 168.036L725.167 173.595L711.285 157.516L735.731 136.367L749.463 152.272L743.107 157.771L735.411 148.857L732.757 151.153L739.698 159.193L733.412 164.631L726.471 156.591ZM735.736 186.359L740.922 193.834L757.998 188.152L746.713 202.183L751.899 209.658L783.652 198.723L777.861 190.375L760.762 196.916L772.385 182.482L768.331 176.638L750.759 182.497L762.856 168.745L757.065 160.397L735.736 186.359ZM806.362 240.957L810.839 250.182L788.038 249.098L776.993 254.47L772.96 246.16L784.005 240.788L797.246 222.176L801.723 231.401L793.828 241.147L806.362 240.957ZM795.853 276.326L799.214 275.034L803.018 284.953L810.776 281.973L806.972 272.054L810.248 270.795L814.465 281.792L822.309 278.779L814.785 259.156L784.615 270.747L792.221 290.585L800.152 287.539L795.853 276.326ZM803.285 326.209L800.545 316.664L804.232 314.45L801.658 305.482L797.359 305.565L794.619 296.02L828.521 296.986L831.503 307.375L803.285 326.209ZM819.584 305.18L809.305 305.349L810.784 310.499L819.584 305.18ZM808.913 352.319L810.726 362.036L821.402 353.555C822.628 354.924 824.076 355.89 825.747 356.455C827.424 357.05 829.2 357.172 831.076 356.822C834.434 356.194 836.915 354.555 838.518 351.906C840.147 349.221 840.639 346.153 839.995 342.702L837.622 329.988L805.854 335.927L807.549 345.009L817.533 343.142L817.957 345.412L808.913 352.319ZM830.967 340.63L831.61 344.081C831.791 345.05 831.66 345.858 831.217 346.504C830.81 347.176 830.138 347.599 829.2 347.774C828.262 347.95 827.482 347.798 826.86 347.319C826.244 346.87 825.861 346.159 825.711 345.184L825.067 341.733L830.967 340.63Z" fill="white"/>
</svg>
