<svg width="282" height="282" viewBox="0 0 282 282" fill="none" xmlns="http://www.w3.org/2000/svg">
<path d="M280.879 148.859C280.972 147.256 280.446 146.057 279.482 145.208L280.777 145.283L280.942 142.45L265.567 141.559L265.403 144.392L271.092 144.722C270.036 145.454 269.375 146.584 269.282 148.187C269.112 151.13 271.498 153.692 274.77 153.882C278.043 154.072 280.708 151.802 280.879 148.859ZM272.014 147.816C272.115 146.081 273.442 144.858 275.287 144.965C277.132 145.072 278.308 146.44 278.208 148.175C278.106 149.932 276.779 151.156 274.934 151.049C273.089 150.942 271.912 149.573 272.014 147.816Z" fill="white"/>
<path d="M278.585 165.867L272.73 164.865C270.843 164.543 270.215 163.386 270.449 162.02C270.664 160.762 271.575 160.003 273.049 160.255L279.36 161.335L279.838 158.537L273.181 157.399C270.296 156.905 268.384 158.431 267.991 160.729C267.743 162.182 268.092 163.403 268.957 164.22L267.742 164.012L267.264 166.81L278.107 168.664L278.585 165.867Z" fill="white"/>
<path d="M273.288 175.549C273.859 175.711 274 176.345 273.808 177.022C273.586 177.806 273.016 178.284 272.249 178.41L272.86 181.098C274.554 180.686 275.757 179.427 276.242 177.712C276.859 175.532 276.174 173.348 274.015 172.737C270.29 171.681 269.59 177.382 268.045 176.945C267.431 176.771 267.303 176.094 267.548 175.226C267.848 174.168 268.56 173.592 269.512 173.542L268.85 170.793C267.004 171.093 265.671 172.408 265.072 174.525C264.431 176.789 264.968 179.091 267.254 179.739C271.149 180.842 271.721 175.105 273.288 175.549Z" fill="white"/>
<path d="M271.07 193.134C271.619 191.766 271.534 190.5 270.861 189.519L276.088 191.616L277.145 188.981L262.852 183.247L261.796 185.881L267.308 188.093C269.085 188.806 269.455 190.069 268.94 191.355C268.465 192.539 267.414 193.09 266.026 192.533L260.084 190.149L259.028 192.783L265.296 195.298C268.012 196.388 270.202 195.299 271.07 193.134Z" fill="white"/>
<path d="M257.505 213.258L259.843 214.663L261.123 212.531L263.763 214.118L264.489 211.243L262.584 210.098L263.57 208.458L261.232 207.053L260.246 208.693L256.324 206.337C253.778 204.807 252.087 205.357 250.414 208.997L252.621 210.323C253.384 208.882 253.844 208.158 254.863 208.77L258.785 211.126L257.505 213.258Z" fill="white"/>
<path d="M253.725 224.203C254.601 223.017 254.838 221.77 254.434 220.651L258.964 223.998L260.649 221.715L248.263 212.564L246.577 214.847L251.355 218.376C252.894 219.514 252.935 220.829 252.111 221.944C251.353 222.971 250.198 223.239 248.995 222.35L243.846 218.545L242.16 220.828L247.592 224.842C249.946 226.581 252.34 226.079 253.725 224.203Z" fill="white"/>
<path d="M241.404 228.52L235.757 234.595C235.986 234.898 236.23 235.185 236.536 235.47C238.904 237.672 242.362 237.733 244.579 235.349C246.93 232.819 246.681 229.372 244.28 227.139C241.88 224.907 238.44 224.892 235.923 227.599C234.485 229.146 233.99 230.938 234.381 232.715L236.906 231.938C236.768 231.149 237.029 230.19 237.778 229.384C238.797 228.288 240.071 227.822 241.404 228.52ZM243.045 229.986C243.852 231.187 243.744 232.499 242.71 233.611C241.901 234.481 240.625 234.916 239.226 234.095L243.045 229.986Z" fill="white"/>
<path d="M224.934 253.191C226.218 252.227 226.795 251.052 226.821 249.767L230.24 254.326L232.51 252.623L223.271 240.302L221.001 242.005L221.78 243.043C220.539 242.709 219.25 242.934 217.965 243.897C215.607 245.666 215.189 249.143 217.155 251.765C219.122 254.388 222.576 254.96 224.934 253.191ZM220.011 245.745C221.401 244.702 223.192 244.927 224.301 246.405C225.409 247.884 225.123 249.666 223.733 250.709C222.325 251.765 220.534 251.541 219.426 250.062C218.317 248.584 218.603 246.802 220.011 245.745Z" fill="white"/>
<path d="M210.219 262.498L207.217 257.373C206.25 255.721 206.731 254.496 207.926 253.795C209.027 253.15 210.195 253.359 210.951 254.65L214.186 260.174L216.635 258.739L213.222 252.911C211.743 250.386 209.345 249.905 207.333 251.084C206.061 251.829 205.352 252.882 205.283 254.07L204.66 253.006L202.211 254.441L207.77 263.933L210.219 262.498Z" fill="white"/>
<path d="M196.351 266.464L197.497 268.94L199.752 267.895L201.047 270.69L203.261 268.718L202.328 266.702L204.064 265.897L202.918 263.422L201.181 264.226L199.259 260.074C198.011 257.379 196.304 256.885 192.875 258.958L193.957 261.293C195.397 260.529 196.185 260.189 196.684 261.267L198.606 265.419L196.351 266.464Z" fill="white"/>
<path d="M185.904 270.577L186.843 273.139L189.177 272.283L190.237 275.174L192.606 273.392L191.841 271.305L193.638 270.646L192.699 268.085L190.902 268.744L189.327 264.448C188.305 261.659 186.644 261.026 183.057 262.811L183.943 265.227C185.441 264.584 186.254 264.309 186.663 265.425L188.238 269.721L185.904 270.577Z" fill="white"/>
<path d="M174.031 265.225C170.897 266.024 169.006 269.117 169.815 272.293C170.624 275.47 173.764 277.281 176.898 276.482C180.032 275.683 181.902 272.596 181.093 269.42C180.284 266.243 177.165 264.427 174.031 265.225ZM174.715 267.912C176.336 267.499 177.903 268.393 178.343 270.12C178.783 271.847 177.834 273.383 176.214 273.796C174.572 274.214 173.005 273.319 172.565 271.593C172.126 269.866 173.074 268.33 174.715 267.912Z" fill="white"/>
<path d="M159.811 279.869C161.271 279.671 162.331 278.972 162.852 277.902L163.017 279.123L165.83 278.741L164.351 267.841L161.539 268.223L162.337 274.109C162.595 276.005 161.679 276.951 160.306 277.137C159.042 277.309 158.044 276.667 157.843 275.185L156.983 268.841L154.171 269.222L155.078 275.915C155.472 278.815 157.5 280.182 159.811 279.869Z" fill="white"/>
<path d="M134.824 280.99C136.429 281.058 137.619 280.514 138.453 279.537L138.398 280.834L141.234 280.954L141.887 265.568L139.052 265.447L138.81 271.14C138.062 270.096 136.922 269.453 135.317 269.384C132.372 269.259 129.847 271.684 129.708 274.959C129.569 278.234 131.879 280.865 134.824 280.99ZM135.73 272.11C137.466 272.184 138.71 273.492 138.632 275.338C138.553 277.185 137.203 278.383 135.467 278.309C133.708 278.234 132.465 276.926 132.543 275.08C132.622 273.233 133.972 272.036 135.73 272.11Z" fill="white"/>
<path d="M117.573 278.869L118.507 273.003C118.808 271.113 119.957 270.472 121.326 270.69C122.586 270.89 123.356 271.792 123.12 273.27L122.114 279.592L124.917 280.039L125.978 273.369C126.438 270.479 124.891 268.584 122.588 268.217C121.132 267.986 119.916 268.349 119.109 269.223L119.302 268.006L116.5 267.56L114.771 278.423L117.573 278.869Z" fill="white"/>
<path d="M108.024 273.713C107.871 274.287 107.239 274.437 106.559 274.256C105.773 274.046 105.285 273.483 105.148 272.718L102.469 273.369C102.907 275.057 104.185 276.24 105.907 276.7C108.096 277.285 110.269 276.567 110.847 274.399C111.846 270.657 106.135 270.044 106.549 268.492C106.713 267.875 107.388 267.737 108.259 267.969C109.322 268.253 109.909 268.956 109.974 269.907L112.712 269.204C112.383 267.363 111.049 266.05 108.923 265.482C106.649 264.875 104.356 265.447 103.743 267.743C102.699 271.654 108.444 272.14 108.024 273.713Z" fill="white"/>
<path d="M90.4506 271.731C91.8266 272.259 93.0917 272.156 94.0625 271.468L92.0449 276.726L94.6943 277.743L100.211 263.365L97.5619 262.348L95.4339 267.894C94.7482 269.681 93.4913 270.07 92.1973 269.574C91.0061 269.116 90.4399 268.074 90.9758 266.677L93.2693 260.7L90.6198 259.683L88.2002 265.989C87.152 268.721 88.2735 270.895 90.4506 271.731Z" fill="white"/>
<path d="M70.1788 258.429L68.8088 260.788L70.9584 262.037L69.4116 264.7L72.2964 265.384L73.4123 263.462L75.0672 264.424L76.4372 262.065L74.7822 261.103L77.0802 257.146C78.5716 254.578 77.9968 252.895 74.3328 251.275L73.0402 253.501C74.492 254.243 75.2229 254.693 74.6263 255.72L72.3283 259.678L70.1788 258.429Z" fill="white"/>
<path d="M59.2204 254.8C60.4186 255.659 61.6688 255.878 62.7817 255.457L59.5026 260.036L61.8096 261.689L70.776 249.168L68.469 247.516L65.0105 252.345C63.8961 253.901 62.5817 253.961 61.455 253.153C60.4177 252.41 60.1328 251.259 61.0039 250.043L64.7313 244.838L62.4243 243.185L58.4919 248.676C56.7883 251.055 57.3248 253.442 59.2204 254.8Z" fill="white"/>
<path d="M54.7704 242.542L48.6157 236.983C48.3161 237.216 48.0328 237.464 47.7527 237.774C45.5854 240.175 45.5747 243.634 47.9908 245.816C50.5539 248.132 53.9962 247.832 56.193 245.399C58.3897 242.966 58.3547 239.525 55.612 237.047C54.0447 235.631 52.2453 235.162 50.4755 235.579L51.2888 238.093C52.0755 237.944 53.0381 238.191 53.8544 238.928C54.9645 239.931 55.4496 241.199 54.7704 242.542ZM53.3288 244.205C52.1403 245.029 50.8275 244.94 49.701 243.922C48.8195 243.126 48.3654 241.856 49.1657 240.444L53.3288 244.205Z" fill="white"/>
<path d="M29.8586 226.349C30.8361 227.623 32.017 228.187 33.3019 228.199L28.7815 231.668L30.5088 233.92L42.7259 224.544L40.9986 222.292L39.9689 223.083C40.2897 221.838 40.0513 220.551 39.0738 219.277C37.2796 216.938 33.7997 216.558 31.1992 218.554C28.5987 220.549 28.0644 224.01 29.8586 226.349ZM37.2485 221.343C38.3063 222.722 38.1014 224.516 36.6354 225.641C35.1693 226.766 33.3845 226.5 32.3267 225.12C31.2555 223.724 31.4604 221.931 32.9264 220.806C34.3925 219.68 36.1773 219.947 37.2485 221.343Z" fill="white"/>
<path d="M20.4001 211.796L25.4916 208.737C27.1323 207.751 28.3624 208.218 29.0759 209.406C29.7329 210.5 29.5373 211.67 28.255 212.441L22.7674 215.738L24.2285 218.171L30.0178 214.692C32.5259 213.185 32.9813 210.781 31.7806 208.782C31.0217 207.519 29.9613 206.821 28.7729 206.765L29.8289 206.131L28.3678 203.698L18.9389 209.363L20.4001 211.796Z" fill="white"/>
<path d="M16.2672 197.999L13.8048 199.173L14.8743 201.417L12.0942 202.743L14.0897 204.935L16.0953 203.979L16.9188 205.707L19.3812 204.532L18.5577 202.805L22.6882 200.835C25.369 199.557 25.8441 197.844 23.7338 194.438L21.4104 195.546C22.1903 196.978 22.5395 197.762 21.4672 198.273L17.3367 200.243L16.2672 197.999Z" fill="white"/>
<path d="M12.0332 187.647L9.48278 188.615L10.3647 190.939L7.48516 192.032L9.29407 194.381L11.3714 193.593L12.0504 195.382L14.6008 194.414L13.9219 192.624L18.2 191C20.9767 189.946 21.5907 188.278 19.7668 184.711L17.3603 185.624C18.0201 187.115 18.3039 187.925 17.1932 188.347L12.9151 189.971L12.0332 187.647Z" fill="white"/>
<path d="M17.2048 175.654C16.371 172.529 13.2573 170.673 10.0902 171.519C6.92314 172.365 5.14812 175.525 5.98197 178.65C6.81582 181.775 9.92387 183.609 13.0909 182.764C16.258 181.918 18.0387 178.778 17.2048 175.654ZM14.5267 176.369C14.9578 177.984 14.0809 179.562 12.3592 180.021C10.6375 180.481 9.09126 179.551 8.66015 177.935C8.22337 176.298 9.10026 174.721 10.822 174.261C12.5436 173.801 14.0899 174.732 14.5267 176.369Z" fill="white"/>
<path d="M2.37492 161.59C2.58982 163.048 3.30073 164.1 4.37636 164.608L3.15754 164.788L3.57131 167.596L14.4537 165.991L14.0399 163.184L8.16342 164.05C6.26989 164.329 5.31385 163.425 5.11178 162.054C4.92574 160.791 5.556 159.787 7.036 159.568L13.3695 158.635L12.9558 155.827L6.274 156.812C3.37929 157.239 2.03493 159.283 2.37492 161.59Z" fill="white"/>
<path d="M0.925389 136.93C0.875757 138.535 1.43344 139.719 2.42048 140.541L1.1231 140.501L1.03539 143.338L16.4281 143.813L16.5158 140.976L10.8205 140.801C11.8565 140.04 12.4862 138.893 12.5359 137.288C12.627 134.341 10.173 131.844 6.89652 131.743C3.62008 131.642 1.0165 133.983 0.925389 136.93ZM9.81483 137.732C9.76112 139.469 8.4676 140.728 6.62048 140.671C4.77336 140.614 3.56007 139.278 3.61378 137.541C3.66817 135.782 4.96169 134.523 6.80881 134.58C8.65594 134.637 9.86922 135.973 9.81483 137.732Z" fill="white"/>
<path d="M2.84194 119.296L8.71841 120.162C10.6119 120.441 11.2665 121.583 11.0644 122.954C10.8784 124.217 9.98511 124.997 8.50511 124.778L2.17158 123.845L1.75781 126.652L8.43958 127.638C11.3343 128.064 13.2111 126.495 13.5511 124.188C13.766 122.73 13.3887 121.518 12.5055 120.721L13.7243 120.9L14.1381 118.093L3.25571 116.488L2.84194 119.296Z" fill="white"/>
<path d="M7.79128 109.991C7.21567 109.844 7.05839 109.214 7.23215 108.532C7.43306 107.743 7.99016 107.249 8.75381 107.103L8.07198 104.432C6.38922 104.889 5.22032 106.18 4.78049 107.907C4.22121 110.103 4.96396 112.267 7.13847 112.821C10.8906 113.777 11.4388 108.06 12.995 108.456C13.6133 108.614 13.7597 109.287 13.5371 110.161C13.2656 111.227 12.5693 111.821 11.6192 111.897L12.3541 114.627C14.1912 114.278 15.4884 112.928 16.0314 110.797C16.6124 108.515 16.0142 106.229 13.7118 105.642C9.78914 104.643 9.36887 110.393 7.79128 109.991Z" fill="white"/>
<path d="M9.54218 92.3219C9.02964 93.7039 9.1475 94.9679 9.84618 95.9311L4.56592 93.9719L3.5791 96.6328L18.0173 101.99L19.0041 99.329L13.4351 97.2627C11.6406 96.5969 11.237 95.3442 11.719 94.0447C12.1626 92.8484 13.1982 92.2705 14.6008 92.7909L20.6029 95.0179L21.5897 92.357L15.2576 90.0075C12.5143 88.9897 10.3531 90.1354 9.54218 92.3219Z" fill="white"/>
<path d="M22.5558 71.8523L20.182 70.5081L18.9574 72.6715L16.2773 71.1538L15.6259 74.0464L17.5594 75.1413L16.6166 76.807L18.9904 78.1513L19.9332 76.4856L23.9151 78.7405C26.4995 80.204 28.1751 79.6107 29.7538 75.9285L27.514 74.6601C26.7886 76.1203 26.3468 76.8561 25.3131 76.2707L21.3312 74.0158L22.5558 71.8523Z" fill="white"/>
<path d="M26.0362 60.8127C25.1912 62.0205 24.9859 63.2732 25.4186 64.3817L20.8047 61.152L19.1777 63.4773L31.7939 72.3087L33.4208 69.9833L28.5546 66.577C26.9866 65.4793 26.9125 64.1653 27.7071 63.0297C28.4386 61.9842 29.5865 61.6867 30.8121 62.5446L36.0568 66.2159L37.6838 63.8906L32.1507 60.0174C29.7536 58.3394 27.3731 58.902 26.0362 60.8127Z" fill="white"/>
<path d="M38.1921 56.2078L43.6828 49.9915C43.4462 49.6943 43.1951 49.4137 42.8819 49.1369C40.4585 46.9954 37.0005 47.0223 34.845 49.4626C32.5584 52.0514 32.8958 55.491 35.3522 57.6617C37.8085 59.8323 41.2481 59.7598 43.6949 56.9897C45.0931 55.4068 45.5425 53.6019 45.106 51.8363L42.6022 52.6771C42.7598 53.4623 42.5235 54.4278 41.7952 55.2522C40.8049 56.3735 39.5422 56.8725 38.1921 56.2078ZM36.5144 54.7839C35.6778 53.6042 35.7523 52.2902 36.7573 51.1525C37.5437 50.2621 38.8083 49.7942 40.2283 50.5793L36.5144 54.7839Z" fill="white"/>
<path d="M54.2297 30.9101C52.9664 31.9017 52.4159 33.089 52.4175 34.3742L48.9004 29.8912L46.668 31.6436L56.1738 43.7596L58.4062 42.0073L57.605 40.9861C58.8527 41.2933 60.1365 41.0407 61.3998 40.049C63.7188 38.2288 64.0607 34.7441 62.0373 32.1651C60.0139 29.5861 56.5486 29.0898 54.2297 30.9101ZM59.3142 38.2461C57.9471 39.3192 56.152 39.1341 55.0113 37.6801C53.8706 36.2262 54.1176 34.4382 55.4847 33.365C56.8691 32.2783 58.6642 32.4635 59.8049 33.9174C60.9456 35.3713 60.6986 37.1594 59.3142 38.2461Z" fill="white"/>
<path d="M68.6838 21.2544L71.798 26.3126C72.8015 27.9425 72.3479 29.1779 71.1678 29.9048C70.0813 30.574 68.9097 30.3914 68.1253 29.1175L64.7689 23.6659L62.3525 25.1543L65.8935 30.9056C67.4275 33.3973 69.8358 33.8259 71.8213 32.6029C73.0764 31.8298 73.762 30.7615 73.805 29.5723L74.4509 30.6214L76.8672 29.133L71.1002 19.766L68.6838 21.2544Z" fill="white"/>
<path d="M82.4917 16.9171L81.2907 14.4678L79.0588 15.5627L77.7028 12.7972L75.5326 14.8175L76.5109 16.8126L74.7925 17.6556L75.9936 20.105L77.7119 19.262L79.7265 23.3706C81.0341 26.0373 82.7523 26.4932 86.1336 24.3443L85.0003 22.0332C83.5775 22.8292 82.7975 23.1874 82.2745 22.1207L80.2598 18.0121L82.4917 16.9171Z" fill="white"/>
<path d="M92.7553 12.5714L91.7589 10.0319L89.4448 10.9402L88.3199 8.07302L85.9915 9.90871L86.8031 11.9772L85.0214 12.6765L86.0178 15.2161L87.7994 14.5167L89.4707 18.7766C90.5555 21.5414 92.2305 22.1365 95.7765 20.272L94.8364 17.8758C93.3531 18.5526 92.5464 18.8456 92.1125 17.7397L90.4412 13.4798L92.7553 12.5714Z" fill="white"/>
<path d="M104.023 17.818C107.135 16.9365 108.943 13.7946 108.05 10.6406C107.157 7.48661 103.97 5.75994 100.859 6.64147C97.747 7.52299 95.9598 10.6589 96.853 13.8129C97.7461 16.9669 100.912 18.6995 104.023 17.818ZM103.268 15.1509C101.66 15.6066 100.069 14.7539 99.5835 13.0393C99.098 11.3247 100.005 9.76435 101.614 9.30859C103.244 8.84684 104.834 9.69959 105.32 11.4142C105.805 13.1288 104.898 14.6891 103.268 15.1509Z" fill="white"/>
<path d="M117.82 2.72956C116.366 2.96691 115.325 3.69394 114.833 4.77731L114.635 3.56137L111.834 4.01834L113.604 14.8749L116.405 14.418L115.449 8.5554C115.141 6.66635 116.031 5.69647 117.398 5.4733C118.658 5.26784 119.672 5.88256 119.913 7.35906L120.943 13.6776L123.744 13.2206L122.657 6.55468C122.186 3.66682 120.122 2.35407 117.82 2.72956Z" fill="white"/>
<path d="M143.141 0.83891C141.535 0.80791 140.358 1.37929 139.547 2.37581L139.572 1.07806L136.734 1.02327L136.437 16.4204L139.275 16.4752L139.385 10.7783C140.157 11.8053 141.311 12.4217 142.917 12.4527C145.864 12.5097 148.333 10.0268 148.396 6.74945C148.459 3.47206 146.088 0.895816 143.141 0.83891ZM142.441 9.73706C140.704 9.70351 139.43 8.42469 139.466 6.57703C139.501 4.72938 140.823 3.50066 142.561 3.53421C144.321 3.56819 145.594 4.84701 145.559 6.69467C145.523 8.54232 144.201 9.77103 142.441 9.73706Z" fill="white"/>
<path d="M160.152 2.43322L159.376 8.32235C159.126 10.22 157.994 10.8919 156.62 10.7108C155.355 10.5441 154.562 9.66283 154.757 8.17964L155.593 1.83247L152.779 1.46167L151.897 8.15783C151.515 11.0588 153.113 12.9114 155.425 13.2161C156.886 13.4087 158.092 13.0129 158.876 12.1176L158.715 13.339L161.529 13.7098L162.965 2.80402L160.152 2.43322Z" fill="white"/>
<path d="M170.411 7.39918C170.551 6.82192 171.18 6.65752 171.864 6.82356C172.655 7.01555 173.155 7.56706 173.31 8.32905L175.973 7.61703C175.497 5.93945 174.192 4.78517 172.46 4.36487C170.258 3.83042 168.103 4.59764 167.574 6.77839C166.661 10.5412 172.384 11.0248 172.005 12.5855C171.855 13.2055 171.184 13.3596 170.307 13.1468C169.238 12.8874 168.636 12.1978 168.549 11.2486L165.828 12.0144C166.198 13.8474 167.562 15.1294 169.7 15.6483C171.988 16.2035 174.267 15.5795 174.827 13.2704C175.782 9.33655 170.027 8.98129 170.411 7.39918Z" fill="white"/>
<path d="M188.19 8.97917C186.802 8.48203 185.54 8.61399 184.585 9.32344L186.483 4.02115L183.812 3.06396L178.62 17.5624L181.291 18.5196L183.294 12.9273C183.939 11.1254 185.187 10.7078 186.492 11.1752C187.693 11.6056 188.283 12.6347 187.778 14.0432L185.62 20.0704L188.292 21.0276L190.569 14.669C191.555 11.9142 190.385 9.76569 188.19 8.97917Z" fill="white"/>
<path d="M208.862 21.8076L210.179 19.4188L208.002 18.2178L209.49 15.5208L206.591 14.9011L205.518 16.8468L203.842 15.9221L202.524 18.3109L204.2 19.2356L201.99 23.2426C200.556 25.8433 201.168 27.5127 204.867 29.0511L206.11 26.7972C204.642 26.0877 203.901 25.6539 204.475 24.6137L206.685 20.6066L208.862 21.8076Z" fill="white"/>
<path d="M219.189 24.67C217.97 23.8425 216.714 23.6554 215.612 24.1043L218.773 19.4429L216.425 17.8496L207.782 30.5956L210.13 32.1889L213.464 27.2726C214.538 25.6884 215.851 25.5952 216.998 26.3733C218.054 27.0897 218.368 28.2334 217.528 29.4716L213.935 34.7702L216.284 36.3635L220.074 30.7735C221.717 28.3518 221.119 25.9792 219.189 24.67Z" fill="white"/>
<path d="M224.704 37.3248L230.978 42.7488C231.273 42.509 231.551 42.2548 231.824 41.9385C233.938 39.4914 233.874 36.0331 231.41 33.9037C228.797 31.6449 225.363 32.0198 223.219 34.5002C221.076 36.9806 221.186 40.42 223.982 42.8371C225.58 44.2183 227.389 44.6481 229.15 44.1924L228.282 41.6973C227.499 41.8635 226.531 41.6376 225.699 40.9182C224.567 39.9399 224.054 38.6825 224.704 37.3248ZM226.109 35.6313C227.279 34.7818 228.594 34.842 229.742 35.8348C230.641 36.6117 231.122 37.8714 230.353 39.3001L226.109 35.6313Z" fill="white"/>
<path d="M249.631 52.4679C248.621 51.219 247.427 50.6858 246.142 50.7062L250.572 47.1231L248.788 44.916L236.814 54.6002L238.598 56.8073L239.607 55.991C239.319 57.2433 239.59 58.5236 240.599 59.7726C242.453 62.0652 245.941 62.3562 248.49 60.2948C251.039 58.2335 251.484 54.7605 249.631 52.4679ZM242.371 57.6603C241.279 56.3087 241.438 54.5107 242.875 53.3486C244.312 52.1865 246.103 52.4074 247.195 53.759C248.302 55.1277 248.143 56.9257 246.706 58.0878C245.269 59.2499 243.478 59.029 242.371 57.6603Z" fill="white"/>
<path d="M259.522 66.7917L254.511 69.981C252.896 71.0086 251.655 70.5732 250.911 69.4038C250.226 68.3272 250.391 67.1527 251.653 66.3494L257.054 62.9122L255.531 60.5176L249.833 64.1439C247.365 65.7149 246.971 68.1296 248.223 70.0973C249.014 71.341 250.092 72.0109 251.282 72.0363L250.242 72.6977L251.766 75.0923L261.046 69.1863L259.522 66.7917Z" fill="white"/>
<path d="M264.072 80.529L266.503 79.2913L265.375 77.0757L268.12 75.6783L266.068 73.5382L264.088 74.5463L263.22 72.8405L260.789 74.0782L261.657 75.784L257.579 77.8601C254.932 79.2076 254.502 80.9327 256.7 84.282L258.994 83.1142C258.177 81.7032 257.808 80.9285 258.866 80.3895L262.944 78.3134L264.072 80.529Z" fill="white"/>
<path d="M268.586 90.7494L271.11 89.7147L270.168 87.4143L273.017 86.2461L271.148 83.9454L269.092 84.7882L268.366 83.0171L265.842 84.0517L266.567 85.8228L262.333 87.5584C259.585 88.6849 259.015 90.3689 260.932 93.8868L263.314 92.9105C262.615 91.4374 262.31 90.6351 263.409 90.1846L267.643 88.449L268.586 90.7494Z" fill="white"/>
<path d="M263.78 102.954C264.696 106.055 267.858 107.828 271.002 106.899C274.145 105.969 275.836 102.762 274.919 99.661C274.003 96.5596 270.847 94.8083 267.704 95.7376C264.56 96.6669 262.863 99.8526 263.78 102.954ZM266.438 102.168C265.964 100.565 266.799 98.9644 268.508 98.4593C270.217 97.9541 271.787 98.8434 272.261 100.447C272.741 102.071 271.906 103.672 270.197 104.177C268.488 104.682 266.918 103.793 266.438 102.168Z" fill="white"/>
<path d="M278.983 116.599C278.729 115.147 277.991 114.115 276.902 113.635L278.115 113.423L277.626 110.628L266.791 112.523L267.28 115.319L273.131 114.295C275.016 113.965 275.996 114.844 276.235 116.209C276.455 117.466 275.852 118.487 274.378 118.745L268.072 119.848L268.561 122.644L275.214 121.48C278.096 120.975 279.385 118.896 278.983 116.599Z" fill="white"/>
</svg>
